# xmcd
#
# Track frame offsets:
#        150
#        24458
#        47880
#        73670
#        100810
#        148910
#        184350
#        234910
#        274168
#
# Disc length: 4583 seconds
#
# Revision: 0
# Processed by: cddbd v1.5.2PL0 Copyright (c) Steve Scherf et al.
# Submitted via: ExactAudioCopy v0.95a2
#
DISCID=8311e509
DTITLE=RIcher Wagner / Der Ring Des Niberlungen
DYEAR=
DGENRE=Opera
TTITLE0=Sigfried - Vorspiel (2. Akt)
TTITLE1=Sigfried - Waldweben
TTITLE2=Sigfried - Siegfried Und Der Drachen
TTITLE3=Götterdämmerung - Siegfrieds Rheinfahrt
TTITLE4=Götterdämmerung - Hagen Und Die Vasallen
TTITLE5=Götterdämmerung - Siegfried's Funeral March-Siegfrieds Trauermarsch
TTITLE5=Götterdämmerung - Brunnhildes Schlubgesang
TTITLE6=Götterdämmerung - Siegfried Idyll (Excerpt)
TTITLE7=
TTITLE8=
EXTD=
EXTT0=
EXTT1=
EXTT2=
EXTT3=
EXTT4=
EXTT5=
EXTT6=
EXTT7=
EXTT8=
PLAYORDER=
.
